<svg width="17" height="16" viewBox="0 0 17 16" fill="none" xmlns="http://www.w3.org/2000/svg">
<path d="M6.50049 4C6.86868 4 7.16716 3.70152 7.16716 3.33333C7.16716 2.96514 6.86868 2.66667 6.50049 2.66667C6.1323 2.66667 5.83382 2.96514 5.83382 3.33333C5.83382 3.70152 6.1323 4 6.50049 4Z" stroke="black" stroke-linecap="round" stroke-linejoin="round"/>
<path d="M6.50049 8.66667C6.86868 8.66667 7.16716 8.36819 7.16716 8C7.16716 7.63181 6.86868 7.33333 6.50049 7.33333C6.1323 7.33333 5.83382 7.63181 5.83382 8C5.83382 8.36819 6.1323 8.66667 6.50049 8.66667Z" stroke="black" stroke-linecap="round" stroke-linejoin="round"/>
<path d="M6.50049 13.3333C6.86868 13.3333 7.16716 13.0349 7.16716 12.6667C7.16716 12.2985 6.86868 12 6.50049 12C6.1323 12 5.83382 12.2985 5.83382 12.6667C5.83382 13.0349 6.1323 13.3333 6.50049 13.3333Z" stroke="black" stroke-linecap="round" stroke-linejoin="round"/>
<path d="M10.5005 4C10.8687 4 11.1672 3.70152 11.1672 3.33333C11.1672 2.96514 10.8687 2.66667 10.5005 2.66667C10.1323 2.66667 9.83382 2.96514 9.83382 3.33333C9.83382 3.70152 10.1323 4 10.5005 4Z" stroke="black" stroke-linecap="round" stroke-linejoin="round"/>
<path d="M10.5005 8.66667C10.8687 8.66667 11.1672 8.36819 11.1672 8C11.1672 7.63181 10.8687 7.33333 10.5005 7.33333C10.1323 7.33333 9.83382 7.63181 9.83382 8C9.83382 8.36819 10.1323 8.66667 10.5005 8.66667Z" stroke="black" stroke-linecap="round" stroke-linejoin="round"/>
<path d="M10.5005 13.3333C10.8687 13.3333 11.1672 13.0349 11.1672 12.6667C11.1672 12.2985 10.8687 12 10.5005 12C10.1323 12 9.83382 12.2985 9.83382 12.6667C9.83382 13.0349 10.1323 13.3333 10.5005 13.3333Z" stroke="black" stroke-linecap="round" stroke-linejoin="round"/>
</svg>
