<svg width="15" height="14" viewBox="0 0 15 14" fill="none" xmlns="http://www.w3.org/2000/svg">
<path d="M5.75049 10.5C5.75049 11.1443 5.22816 11.6667 4.58383 11.6667C3.93949 11.6667 3.41716 11.1443 3.41716 10.5C3.41716 9.85568 3.93949 9.33334 4.58383 9.33334M5.75049 10.5C5.75049 9.85568 5.22816 9.33334 4.58383 9.33334M5.75049 10.5H9.25049C9.55991 10.5 9.85666 10.3771 10.0755 10.1583C10.2942 9.93951 10.4172 9.64276 10.4172 9.33334V6.41668M4.58383 9.33334V4.66668M4.58383 4.66668C5.22816 4.66668 5.75049 4.14434 5.75049 3.50001C5.75049 2.85568 5.22816 2.33334 4.58383 2.33334C3.93949 2.33334 3.41716 2.85568 3.41716 3.50001C3.41716 4.14434 3.93949 4.66668 4.58383 4.66668ZM10.4172 6.41668L8.66716 8.16668M10.4172 6.41668L12.1672 8.16668M11.5838 3.50001C11.5838 4.14434 11.0615 4.66668 10.4172 4.66668C9.77283 4.66668 9.25049 4.14434 9.25049 3.50001C9.25049 2.85568 9.77283 2.33334 10.4172 2.33334C11.0615 2.33334 11.5838 2.85568 11.5838 3.50001Z" stroke="black" stroke-linecap="round" stroke-linejoin="round"/>
</svg>
