<svg width="15" height="14" viewBox="0 0 15 14" fill="none" xmlns="http://www.w3.org/2000/svg">
<path d="M4.58388 5.83333H6.33388V4.08333L4.29221 2.04166C4.94533 1.72974 5.67909 1.62797 6.39244 1.75036C7.1058 1.87275 7.76367 2.21329 8.27546 2.72508C8.78725 3.23687 9.12779 3.89474 9.25018 4.6081C9.37258 5.32145 9.2708 6.05521 8.95888 6.70833L12.4589 10.2083C12.6909 10.4404 12.8213 10.7551 12.8213 11.0833C12.8213 11.4115 12.6909 11.7263 12.4589 11.9583C12.2268 12.1904 11.9121 12.3208 11.5839 12.3208C11.2557 12.3208 10.9409 12.1904 10.7089 11.9583L7.20888 8.45833C6.55576 8.77025 5.822 8.87203 5.10865 8.74963C4.39529 8.62724 3.73742 8.2867 3.22563 7.77491C2.71384 7.26312 2.3733 6.60525 2.25091 5.8919C2.12852 5.17854 2.23029 4.44478 2.54221 3.79166L4.58388 5.83333Z" stroke="black" stroke-linecap="round" stroke-linejoin="round"/>
</svg>
