<svg width="16" height="16" viewBox="0 0 16 16" fill="none" xmlns="http://www.w3.org/2000/svg">
<path d="M6.66669 10.6667H10.6667M2.66669 5.33332H4.66669M2.66669 7.99999H4.66669M2.66669 10.6667H4.66669M13.3334 3.99999V12C13.3334 12.3536 13.1929 12.6928 12.9428 12.9428C12.6928 13.1928 12.3536 13.3333 12 13.3333H5.33335C4.97973 13.3333 4.64059 13.1928 4.39054 12.9428C4.1405 12.6928 4.00002 12.3536 4.00002 12V3.99999C4.00002 3.64637 4.1405 3.30723 4.39054 3.05718C4.64059 2.80713 4.97973 2.66666 5.33335 2.66666H12C12.3536 2.66666 12.6928 2.80713 12.9428 3.05718C13.1929 3.30723 13.3334 3.64637 13.3334 3.99999ZM10 7.33332C10 8.0697 9.40307 8.66666 8.66669 8.66666C7.93031 8.66666 7.33335 8.0697 7.33335 7.33332C7.33335 6.59694 7.93031 5.99999 8.66669 5.99999C9.40307 5.99999 10 6.59694 10 7.33332Z" stroke="#1C7ED6" stroke-linecap="round" stroke-linejoin="round"/>
</svg>
