<svg width="15" height="14" viewBox="0 0 15 14" fill="none" xmlns="http://www.w3.org/2000/svg">
<path d="M4.58382 4.08333H4.00049C3.69107 4.08333 3.39432 4.20625 3.17553 4.42504C2.95674 4.64383 2.83382 4.94058 2.83382 5.25V10.5C2.83382 10.8094 2.95674 11.1062 3.17553 11.325C3.39432 11.5438 3.69107 11.6667 4.00049 11.6667H9.25049C9.55991 11.6667 9.85665 11.5438 10.0754 11.325C10.2942 11.1062 10.4172 10.8094 10.4172 10.5V9.91667M9.83382 2.91667L11.5838 4.66667M12.3917 3.84131C12.6215 3.61157 12.7506 3.29997 12.7506 2.97506C12.7506 2.65016 12.6215 2.33856 12.3917 2.10881C12.162 1.87907 11.8504 1.75 11.5255 1.75C11.2006 1.75 10.889 1.87907 10.6592 2.10881L5.75049 7.00006V8.75006H7.50049L12.3917 3.84131Z" stroke="white" stroke-linecap="round" stroke-linejoin="round"/>
</svg>
