<svg width="15" height="14" viewBox="0 0 15 14" fill="none" xmlns="http://www.w3.org/2000/svg">
<path d="M2.8338 4.08333H12.1671M3.41713 4.08333L4.00047 11.0833C4.00047 11.3928 4.12338 11.6895 4.34218 11.9083C4.56097 12.1271 4.85772 12.25 5.16713 12.25H9.8338C10.1432 12.25 10.44 12.1271 10.6588 11.9083C10.8776 11.6895 11.0005 11.3928 11.0005 11.0833L11.5838 4.08333M5.75047 4.08333V2.33333C5.75047 2.17862 5.81193 2.03025 5.92132 1.92085C6.03072 1.81146 6.17909 1.75 6.3338 1.75H8.66714C8.82184 1.75 8.97022 1.81146 9.07961 1.92085C9.18901 2.03025 9.25047 2.17862 9.25047 2.33333V4.08333M6.3338 7L8.66714 9.33333M8.66714 7L6.3338 9.33333" stroke="#495057" stroke-linecap="round" stroke-linejoin="round"/>
</svg>
