<svg width="16" height="16" viewBox="0 0 16 16" fill="none" xmlns="http://www.w3.org/2000/svg">
<path d="M6.66669 9.33326C6.88394 9.55499 7.14325 9.73115 7.42944 9.8514C7.71562 9.97166 8.02293 10.0336 8.33335 10.0336C8.64378 10.0336 8.95108 9.97166 9.23727 9.8514C9.52345 9.73115 9.78277 9.55499 10 9.33326L12.6667 6.6666C13.1087 6.22457 13.357 5.62505 13.357 4.99993C13.357 4.37481 13.1087 3.77529 12.6667 3.33326C12.2247 2.89123 11.6251 2.64291 11 2.64291C10.3749 2.64291 9.77538 2.89123 9.33335 3.33326L9.00002 3.6666M9.33336 6.66665C9.11611 6.44492 8.8568 6.26877 8.57061 6.14851C8.28442 6.02825 7.97712 5.96631 7.66669 5.96631C7.35627 5.96631 7.04896 6.02825 6.76278 6.14851C6.47659 6.26877 6.21728 6.44492 6.00003 6.66665L3.33336 9.33332C2.89133 9.77535 2.64301 10.3749 2.64301 11C2.64301 11.6251 2.89133 12.2246 3.33336 12.6667C3.77539 13.1087 4.37491 13.357 5.00003 13.357C5.62515 13.357 6.22467 13.1087 6.66669 12.6667L7.00003 12.3333" stroke="black" stroke-linecap="round" stroke-linejoin="round"/>
</svg>
